<?xml version="1.0" encoding="UTF-8"?>
<svg xmlns="http://www.w3.org/2000/svg" xmlns:xlink="http://www.w3.org/1999/xlink" width="375pt" height="374.999991pt" viewBox="0 0 375 374.999991" version="1.2">
<g id="surface1">
<path style=" stroke:none;fill-rule:nonzero;fill:rgb(100%,100%,100%);fill-opacity:1;" d="M 345.699219 339.195312 L 282.195312 272.035156 C 284.289062 270.097656 286.324219 268.101562 288.300781 266.046875 C 290.28125 263.992188 292.199219 261.878906 294.054688 259.714844 C 295.914062 257.550781 297.707031 255.332031 299.433594 253.0625 C 301.164062 250.792969 302.824219 248.476562 304.421875 246.109375 C 306.015625 243.746094 307.542969 241.335938 308.996094 238.882812 C 310.453125 236.429688 311.839844 233.9375 313.152344 231.402344 C 314.464844 228.871094 315.703125 226.300781 316.867188 223.695312 C 318.03125 221.089844 319.117188 218.453125 320.128906 215.785156 C 321.144531 213.117188 322.078125 210.425781 322.933594 207.703125 C 323.792969 204.980469 324.570312 202.238281 325.265625 199.46875 C 325.964844 196.703125 326.585938 193.917969 327.121094 191.117188 C 327.660156 188.3125 328.117188 185.496094 328.492188 182.667969 C 328.867188 179.839844 329.160156 177.003906 329.375 174.15625 C 329.585938 171.3125 329.714844 168.460938 329.761719 165.609375 C 329.808594 162.753906 329.773438 159.902344 329.660156 157.050781 C 329.542969 154.199219 329.34375 151.355469 329.0625 148.515625 C 328.78125 145.675781 328.417969 142.847656 327.972656 140.027344 C 327.527344 137.207031 327.003906 134.40625 326.398438 131.617188 C 325.792969 128.828125 325.105469 126.058594 324.339844 123.308594 C 323.574219 120.5625 322.730469 117.835938 321.808594 115.136719 C 320.882812 112.4375 319.886719 109.765625 318.808594 107.125 C 317.730469 104.480469 316.578125 101.871094 315.351562 99.296875 C 314.125 96.71875 312.824219 94.183594 311.449219 91.683594 C 310.074219 89.179688 308.632812 86.722656 307.117188 84.304688 C 305.601562 81.886719 304.015625 79.515625 302.363281 77.191406 C 300.710938 74.867188 298.992188 72.589844 297.210938 70.363281 C 295.425781 68.136719 293.582031 65.964844 291.671875 63.84375 C 289.761719 61.722656 287.792969 59.660156 285.765625 57.65625 C 283.738281 55.648438 281.652344 53.703125 279.511719 51.816406 C 277.375 49.933594 275.179688 48.109375 272.933594 46.351562 C 270.691406 44.59375 268.394531 42.898438 266.054688 41.273438 C 263.710938 39.648438 261.324219 38.089844 258.890625 36.601562 C 256.457031 35.113281 253.984375 33.695312 251.46875 32.351562 C 248.953125 31.003906 246.402344 29.734375 243.816406 28.535156 C 241.226562 27.335938 238.609375 26.214844 235.957031 25.167969 C 233.304688 24.121094 230.621094 23.152344 227.914062 22.261719 C 225.207031 21.367188 222.472656 20.554688 219.71875 19.820312 C 216.960938 19.085938 214.1875 18.433594 211.394531 17.859375 C 208.601562 17.285156 205.796875 16.792969 202.972656 16.382812 C 200.152344 15.96875 197.320312 15.640625 194.480469 15.390625 C 191.640625 15.144531 188.796875 14.980469 185.945312 14.894531 C 183.09375 14.8125 180.246094 14.808594 177.394531 14.890625 C 174.542969 14.972656 171.699219 15.136719 168.859375 15.378906 C 166.019531 15.625 163.1875 15.953125 160.363281 16.363281 C 157.542969 16.769531 154.734375 17.261719 151.941406 17.832031 C 149.148438 18.402344 146.375 19.054688 143.617188 19.785156 C 140.863281 20.519531 138.128906 21.328125 135.417969 22.21875 C 132.710938 23.109375 130.027344 24.074219 127.375 25.117188 C 124.722656 26.164062 122.101562 27.285156 119.511719 28.480469 C 116.921875 29.675781 114.371094 30.945312 111.855469 32.289062 C 109.339844 33.628906 106.863281 35.046875 104.429688 36.53125 C 101.996094 38.019531 99.609375 39.574219 97.261719 41.199219 C 94.917969 42.820312 92.625 44.511719 90.375 46.269531 C 88.128906 48.027344 85.933594 49.847656 83.792969 51.730469 C 81.652344 53.613281 79.566406 55.558594 77.535156 57.5625 C 75.507812 59.566406 73.535156 61.625 71.625 63.746094 C 69.714844 65.863281 67.867188 68.035156 66.082031 70.257812 C 64.292969 72.484375 62.574219 74.757812 60.921875 77.082031 C 59.265625 79.40625 57.679688 81.777344 56.160156 84.191406 C 54.644531 86.609375 53.195312 89.066406 51.820312 91.566406 C 50.445312 94.0625 49.140625 96.601562 47.914062 99.175781 C 46.683594 101.75 45.527344 104.359375 44.449219 107 C 43.371094 109.640625 42.367188 112.3125 41.441406 115.011719 C 40.515625 117.710938 39.671875 120.433594 38.902344 123.179688 C 38.132812 125.929688 37.445312 128.699219 36.835938 131.484375 C 36.230469 134.273438 35.699219 137.078125 35.253906 139.894531 C 34.808594 142.714844 34.441406 145.542969 34.160156 148.382812 C 33.875 151.222656 33.671875 154.066406 33.554688 156.917969 C 33.433594 159.769531 33.398438 162.621094 33.441406 165.476562 C 33.488281 168.328125 33.613281 171.175781 33.824219 174.023438 C 34.03125 176.871094 34.324219 179.707031 34.695312 182.535156 C 35.070312 185.367188 35.523438 188.179688 36.058594 190.984375 C 36.59375 193.789062 37.210938 196.574219 37.90625 199.339844 C 38.601562 202.105469 39.378906 204.851562 40.230469 207.574219 C 41.085938 210.296875 42.019531 212.992188 43.027344 215.660156 C 44.039062 218.332031 45.125 220.96875 46.285156 223.574219 C 47.449219 226.179688 48.683594 228.75 49.992188 231.285156 C 51.304688 233.820312 52.6875 236.3125 54.140625 238.769531 C 55.59375 241.222656 57.117188 243.632812 58.710938 246 C 60.304688 248.367188 61.964844 250.6875 63.691406 252.957031 C 65.417969 255.226562 67.207031 257.445312 69.0625 259.613281 C 70.917969 261.78125 72.835938 263.894531 74.8125 265.949219 C 76.789062 268.007812 78.820312 270.003906 80.914062 271.941406 C 83.003906 273.882812 85.152344 275.757812 87.351562 277.574219 C 89.550781 279.390625 91.800781 281.140625 94.101562 282.824219 C 96.40625 284.507812 98.753906 286.125 101.148438 287.675781 C 103.539062 289.226562 105.976562 290.703125 108.457031 292.113281 C 110.9375 293.523438 113.457031 294.859375 116.011719 296.121094 C 118.570312 297.382812 121.160156 298.574219 123.785156 299.6875 C 126.410156 300.800781 129.066406 301.835938 131.75 302.796875 C 134.4375 303.757812 137.144531 304.636719 139.882812 305.441406 C 142.617188 306.246094 145.375 306.96875 148.152344 307.613281 C 150.929688 308.257812 153.722656 308.820312 156.535156 309.304688 C 159.34375 309.785156 162.167969 310.1875 165 310.507812 C 167.832031 310.828125 170.671875 311.066406 173.519531 311.21875 C 176.367188 311.375 179.214844 311.449219 182.066406 311.441406 C 193.339844 311.441406 204.46875 310.15625 215.441406 307.578125 C 226.417969 305.003906 236.957031 301.203125 247.054688 296.1875 L 314.792969 368.433594 C 315.789062 369.476562 316.882812 370.410156 318.070312 371.234375 C 319.253906 372.054688 320.511719 372.75 321.84375 373.316406 C 323.171875 373.878906 324.542969 374.304688 325.957031 374.585938 C 327.375 374.871094 328.804688 375.007812 330.246094 375 C 332.957031 375.019531 335.574219 374.53125 338.097656 373.542969 C 340.625 372.554688 342.875 371.132812 344.851562 369.28125 C 345.363281 368.800781 345.847656 368.300781 346.304688 367.777344 C 346.765625 367.25 347.199219 366.707031 347.601562 366.136719 C 348.007812 365.570312 348.386719 364.984375 348.734375 364.378906 C 349.082031 363.773438 349.398438 363.152344 349.683594 362.515625 C 349.96875 361.878906 350.222656 361.230469 350.445312 360.570312 C 350.667969 359.910156 350.859375 359.238281 351.015625 358.558594 C 351.167969 357.878906 351.292969 357.191406 351.378906 356.5 C 351.46875 355.804688 351.523438 355.113281 351.542969 354.414062 C 351.5625 353.714844 351.546875 353.019531 351.496094 352.324219 C 351.449219 351.628906 351.363281 350.933594 351.246094 350.246094 C 351.128906 349.558594 350.980469 348.878906 350.792969 348.207031 C 350.609375 347.53125 350.390625 346.871094 350.140625 346.21875 C 349.890625 345.566406 349.609375 344.929688 349.296875 344.308594 C 348.984375 343.683594 348.640625 343.078125 348.269531 342.488281 C 347.894531 341.898438 347.496094 341.328125 347.066406 340.777344 C 346.636719 340.226562 346.179688 339.699219 345.699219 339.195312 Z M 76.222656 163.136719 C 76.222656 161.402344 76.265625 159.667969 76.351562 157.9375 C 76.4375 156.207031 76.5625 154.476562 76.734375 152.753906 C 76.902344 151.027344 77.117188 149.308594 77.371094 147.59375 C 77.625 145.878906 77.921875 144.167969 78.257812 142.46875 C 78.597656 140.769531 78.976562 139.078125 79.394531 137.394531 C 79.816406 135.714844 80.277344 134.042969 80.78125 132.386719 C 81.285156 130.726562 81.828125 129.082031 82.410156 127.449219 C 82.996094 125.816406 83.617188 124.199219 84.28125 122.597656 C 84.945312 120.996094 85.644531 119.410156 86.386719 117.84375 C 87.128906 116.277344 87.90625 114.726562 88.722656 113.199219 C 89.539062 111.671875 90.390625 110.164062 91.28125 108.675781 C 92.171875 107.1875 93.101562 105.722656 94.0625 104.28125 C 95.023438 102.839844 96.023438 101.425781 97.054688 100.03125 C 98.085938 98.640625 99.152344 97.273438 100.25 95.933594 C 101.347656 94.59375 102.480469 93.28125 103.644531 91.996094 C 104.804688 90.710938 106 89.457031 107.226562 88.230469 C 108.449219 87.003906 109.703125 85.808594 110.988281 84.644531 C 112.269531 83.480469 113.582031 82.347656 114.921875 81.25 C 116.261719 80.148438 117.625 79.082031 119.015625 78.050781 C 120.40625 77.015625 121.824219 76.019531 123.265625 75.054688 C 124.703125 74.09375 126.167969 73.164062 127.652344 72.273438 C 129.140625 71.382812 130.644531 70.527344 132.171875 69.710938 C 133.699219 68.894531 135.246094 68.113281 136.8125 67.375 C 138.378906 66.632812 139.960938 65.929688 141.5625 65.265625 C 143.164062 64.605469 144.777344 63.980469 146.410156 63.394531 C 148.039062 62.8125 149.683594 62.269531 151.34375 61.765625 C 153 61.261719 154.667969 60.800781 156.347656 60.378906 C 158.03125 59.957031 159.71875 59.578125 161.417969 59.238281 C 163.117188 58.902344 164.824219 58.605469 166.535156 58.351562 C 168.25 58.09375 169.96875 57.882812 171.691406 57.714844 C 173.417969 57.542969 175.144531 57.417969 176.875 57.332031 C 178.605469 57.246094 180.335938 57.203125 182.066406 57.203125 C 183.800781 57.203125 185.53125 57.246094 187.261719 57.332031 C 188.992188 57.417969 190.71875 57.542969 192.441406 57.714844 C 194.164062 57.882812 195.882812 58.09375 197.597656 58.351562 C 199.3125 58.605469 201.015625 58.902344 202.714844 59.238281 C 204.414062 59.578125 206.105469 59.957031 207.785156 60.378906 C 209.464844 60.800781 211.132812 61.261719 212.792969 61.765625 C 214.449219 62.269531 216.09375 62.8125 217.722656 63.394531 C 219.355469 63.980469 220.972656 64.605469 222.570312 65.265625 C 224.171875 65.929688 225.753906 66.632812 227.320312 67.375 C 228.886719 68.113281 230.433594 68.894531 231.960938 69.710938 C 233.488281 70.527344 234.996094 71.382812 236.480469 72.273438 C 237.96875 73.164062 239.429688 74.09375 240.871094 75.054688 C 242.308594 76.019531 243.726562 77.015625 245.117188 78.050781 C 246.507812 79.082031 247.875 80.148438 249.214844 81.25 C 250.550781 82.347656 251.863281 83.480469 253.148438 84.644531 C 254.429688 85.808594 255.683594 87.003906 256.910156 88.230469 C 258.132812 89.457031 259.328125 90.710938 260.492188 91.996094 C 261.65625 93.28125 262.785156 94.59375 263.886719 95.933594 C 264.984375 97.273438 266.050781 98.640625 267.082031 100.03125 C 268.113281 101.425781 269.109375 102.839844 270.070312 104.28125 C 271.035156 105.722656 271.960938 107.1875 272.851562 108.675781 C 273.742188 110.164062 274.59375 111.671875 275.414062 113.199219 C 276.230469 114.726562 277.007812 116.277344 277.746094 117.84375 C 278.488281 119.410156 279.191406 120.996094 279.851562 122.597656 C 280.515625 124.199219 281.140625 125.816406 281.722656 127.449219 C 282.304688 129.082031 282.847656 130.726562 283.351562 132.386719 C 283.855469 134.042969 284.316406 135.714844 284.738281 137.394531 C 285.160156 139.078125 285.539062 140.769531 285.875 142.46875 C 286.214844 144.167969 286.511719 145.878906 286.765625 147.59375 C 287.019531 149.308594 287.230469 151.027344 287.398438 152.753906 C 287.570312 154.476562 287.699219 156.207031 287.78125 157.9375 C 287.867188 159.667969 287.910156 161.402344 287.910156 163.136719 C 287.910156 164.871094 287.867188 166.601562 287.78125 168.332031 C 287.699219 170.066406 287.570312 171.792969 287.398438 173.519531 C 287.230469 175.242188 287.019531 176.964844 286.765625 178.679688 C 286.511719 180.394531 286.214844 182.101562 285.875 183.800781 C 285.539062 185.503906 285.160156 187.191406 284.738281 188.875 C 284.316406 190.558594 283.855469 192.226562 283.351562 193.886719 C 282.847656 195.546875 282.304688 197.191406 281.722656 198.824219 C 281.140625 200.457031 280.515625 202.074219 279.851562 203.675781 C 279.191406 205.277344 278.488281 206.859375 277.746094 208.425781 C 277.007812 209.996094 276.230469 211.542969 275.414062 213.070312 C 274.59375 214.601562 273.742188 216.109375 272.851562 217.59375 C 271.960938 219.082031 271.035156 220.546875 270.070312 221.988281 C 269.109375 223.429688 268.113281 224.847656 267.082031 226.238281 C 266.050781 227.632812 264.984375 229 263.886719 230.339844 C 262.785156 231.679688 261.65625 232.992188 260.492188 234.273438 C 259.328125 235.558594 258.132812 236.816406 256.910156 238.039062 C 255.683594 239.265625 254.429688 240.460938 253.148438 241.625 C 251.863281 242.789062 250.550781 243.921875 249.214844 245.023438 C 247.875 246.121094 246.507812 247.1875 245.117188 248.222656 C 243.726562 249.253906 242.308594 250.25 240.871094 251.214844 C 239.429688 252.179688 237.96875 253.105469 236.480469 253.996094 C 234.996094 254.886719 233.488281 255.742188 231.960938 256.558594 C 230.433594 257.375 228.886719 258.15625 227.320312 258.898438 C 225.753906 259.636719 224.171875 260.339844 222.570312 261.003906 C 220.972656 261.667969 219.355469 262.292969 217.722656 262.875 C 216.09375 263.460938 214.449219 264.003906 212.792969 264.507812 C 211.132812 265.007812 209.464844 265.472656 207.785156 265.894531 C 206.105469 266.3125 204.414062 266.695312 202.714844 267.03125 C 201.015625 267.371094 199.3125 267.667969 197.597656 267.921875 C 195.882812 268.175781 194.164062 268.386719 192.441406 268.558594 C 190.71875 268.726562 188.992188 268.855469 187.261719 268.941406 C 185.53125 269.023438 183.800781 269.066406 182.066406 269.066406 C 180.335938 269.066406 178.605469 269.023438 176.875 268.941406 C 175.144531 268.855469 173.417969 268.726562 171.691406 268.558594 C 169.96875 268.386719 168.25 268.175781 166.535156 267.921875 C 164.824219 267.667969 163.117188 267.371094 161.417969 267.03125 C 159.71875 266.695312 158.03125 266.3125 156.347656 265.894531 C 154.667969 265.472656 153 265.007812 151.34375 264.507812 C 149.683594 264.003906 148.039062 263.460938 146.410156 262.875 C 144.777344 262.292969 143.164062 261.667969 141.5625 261.003906 C 139.960938 260.339844 138.378906 259.636719 136.8125 258.898438 C 135.246094 258.15625 133.699219 257.375 132.171875 256.558594 C 130.644531 255.742188 129.140625 254.886719 127.652344 253.996094 C 126.167969 253.105469 124.703125 252.179688 123.265625 251.214844 C 121.824219 250.25 120.40625 249.253906 119.015625 248.222656 C 117.625 247.1875 116.261719 246.121094 114.921875 245.023438 C 113.582031 243.921875 112.269531 242.789062 110.988281 241.625 C 109.703125 240.460938 108.449219 239.265625 107.226562 238.039062 C 106 236.816406 104.804688 235.558594 103.644531 234.273438 C 102.480469 232.992188 101.347656 231.679688 100.25 230.339844 C 99.152344 229 98.085938 227.632812 97.054688 226.238281 C 96.023438 224.847656 95.023438 223.429688 94.0625 221.988281 C 93.101562 220.546875 92.171875 219.082031 91.28125 217.59375 C 90.390625 216.109375 89.539062 214.601562 88.722656 213.070312 C 87.90625 211.542969 87.128906 209.996094 86.386719 208.425781 C 85.644531 206.859375 84.945312 205.277344 84.28125 203.675781 C 83.617188 202.074219 82.996094 200.457031 82.410156 198.824219 C 81.828125 197.191406 81.285156 195.546875 80.78125 193.886719 C 80.277344 192.226562 79.816406 190.558594 79.394531 188.875 C 78.976562 187.191406 78.597656 185.503906 78.257812 183.800781 C 77.921875 182.101562 77.625 180.394531 77.371094 178.679688 C 77.117188 176.964844 76.902344 175.242188 76.734375 173.519531 C 76.5625 171.792969 76.4375 170.066406 76.351562 168.332031 C 76.265625 166.601562 76.222656 164.871094 76.222656 163.136719 Z M 76.222656 163.136719 "/>
</g>
</svg>
